<svg xmlns="http://www.w3.org/2000/svg" width="120" height="120" viewBox="0 0 120 120" fill="none" stroke="#FAEDCD" stroke-width="2.5" stroke-linecap="round" stroke-linejoin="round">
  <!-- Motif inspiré du bogolan : zigzags, points, losanges, échelles -->
  <path d="M0 14 L10 4 L20 14 L30 4 L40 14 L50 4 L60 14 L70 4 L80 14 L90 4 L100 14 L110 4 L120 14"/>
  <g fill="#FAEDCD" stroke="none">
    <circle cx="10" cy="27" r="2.4"/><circle cx="30" cy="27" r="2.4"/><circle cx="50" cy="27" r="2.4"/>
    <circle cx="70" cy="27" r="2.4"/><circle cx="90" cy="27" r="2.4"/><circle cx="110" cy="27" r="2.4"/>
  </g>
  <path d="M30 40 L45 60 L30 80 L15 60 Z"/>
  <path d="M30 50 V70 M22 60 H38"/>
  <circle cx="60" cy="60" r="10"/>
  <circle cx="60" cy="60" r="3" fill="#FAEDCD"/>
  <path d="M90 40 L105 60 L90 80 L75 60 Z"/>
  <circle cx="90" cy="60" r="4"/>
  <path d="M0 98 H120 M0 110 H120"/>
  <path d="M10 98 V110 M25 98 V110 M40 98 V110 M55 98 V110 M70 98 V110 M85 98 V110 M100 98 V110 M115 98 V110"/>
</svg>
